<mxfile host="app.diagrams.net" modified="2022-05-15T20:19:35.412Z" agent="5.0 (Windows)" etag="Xe2IQg6HNuu0wr8zcHz2" version="18.0.5" type="github">
  <diagram id="TP5vVZLdfCZCBAXsVdtp" name="Page-1">
    <mxGraphModel dx="1422" dy="819" grid="1" gridSize="10" guides="1" tooltips="1" connect="1" arrows="1" fold="1" page="1" pageScale="1" pageWidth="827" pageHeight="1169" math="0" shadow="0">
      <root>
        <mxCell id="0" />
        <mxCell id="1" parent="0" />
        <mxCell id="6Wh1PMRdPSsWSP1IhxvI-1" value="Utente nel menu" style="shape=umlActor;verticalLabelPosition=bottom;verticalAlign=top;html=1;outlineConnect=0;" parent="1" vertex="1">
          <mxGeometry x="160" y="40" width="30" height="60" as="geometry" />
        </mxCell>
        <mxCell id="6Wh1PMRdPSsWSP1IhxvI-7" value="Star game" style="ellipse;whiteSpace=wrap;html=1;" parent="1" vertex="1">
          <mxGeometry x="270" y="92.5" width="90" height="30" as="geometry" />
        </mxCell>
        <mxCell id="6Wh1PMRdPSsWSP1IhxvI-9" value="" style="endArrow=none;html=1;rounded=0;entryX=0;entryY=0.5;entryDx=0;entryDy=0;" parent="1" target="6Wh1PMRdPSsWSP1IhxvI-7" edge="1">
          <mxGeometry width="50" height="50" relative="1" as="geometry">
            <mxPoint x="190" y="70" as="sourcePoint" />
            <mxPoint x="340" y="120" as="targetPoint" />
          </mxGeometry>
        </mxCell>
        <mxCell id="6Wh1PMRdPSsWSP1IhxvI-10" value="Leaderboard" style="ellipse;whiteSpace=wrap;html=1;" parent="1" vertex="1">
          <mxGeometry x="270" y="55" width="90" height="30" as="geometry" />
        </mxCell>
        <mxCell id="6Wh1PMRdPSsWSP1IhxvI-11" value="Uscita" style="ellipse;whiteSpace=wrap;html=1;" parent="1" vertex="1">
          <mxGeometry x="270" y="20" width="90" height="30" as="geometry" />
        </mxCell>
        <mxCell id="6Wh1PMRdPSsWSP1IhxvI-12" value="" style="endArrow=none;html=1;rounded=0;entryX=0;entryY=0.5;entryDx=0;entryDy=0;" parent="1" target="6Wh1PMRdPSsWSP1IhxvI-10" edge="1">
          <mxGeometry width="50" height="50" relative="1" as="geometry">
            <mxPoint x="190" y="70" as="sourcePoint" />
            <mxPoint x="340" y="120" as="targetPoint" />
          </mxGeometry>
        </mxCell>
        <mxCell id="6Wh1PMRdPSsWSP1IhxvI-13" value="" style="endArrow=none;html=1;rounded=0;entryX=0;entryY=0.5;entryDx=0;entryDy=0;" parent="1" target="6Wh1PMRdPSsWSP1IhxvI-11" edge="1">
          <mxGeometry width="50" height="50" relative="1" as="geometry">
            <mxPoint x="190" y="70" as="sourcePoint" />
            <mxPoint x="340" y="120" as="targetPoint" />
          </mxGeometry>
        </mxCell>
        <mxCell id="6Wh1PMRdPSsWSP1IhxvI-14" value="" style="endArrow=none;html=1;rounded=0;exitX=1;exitY=0.5;exitDx=0;exitDy=0;" parent="1" source="6Wh1PMRdPSsWSP1IhxvI-10" edge="1">
          <mxGeometry width="50" height="50" relative="1" as="geometry">
            <mxPoint x="320" y="130" as="sourcePoint" />
            <mxPoint x="400" y="70" as="targetPoint" />
          </mxGeometry>
        </mxCell>
        <mxCell id="6Wh1PMRdPSsWSP1IhxvI-15" value="&lt;div&gt;Carica leaderboard&lt;/div&gt;" style="ellipse;whiteSpace=wrap;html=1;align=center;" parent="1" vertex="1">
          <mxGeometry x="400" y="47.5" width="100" height="45" as="geometry" />
        </mxCell>
        <mxCell id="6Wh1PMRdPSsWSP1IhxvI-17" value="" style="endArrow=none;html=1;rounded=0;" parent="1" source="6Wh1PMRdPSsWSP1IhxvI-18" target="6Wh1PMRdPSsWSP1IhxvI-1" edge="1">
          <mxGeometry width="50" height="50" relative="1" as="geometry">
            <mxPoint x="175" y="170" as="sourcePoint" />
            <mxPoint x="280" y="150" as="targetPoint" />
          </mxGeometry>
        </mxCell>
        <mxCell id="6Wh1PMRdPSsWSP1IhxvI-18" value="Utente nel gioco" style="shape=umlActor;verticalLabelPosition=bottom;verticalAlign=top;html=1;outlineConnect=0;" parent="1" vertex="1">
          <mxGeometry x="160" y="145" width="30" height="60" as="geometry" />
        </mxCell>
        <mxCell id="6Wh1PMRdPSsWSP1IhxvI-20" value="" style="endArrow=none;html=1;rounded=0;entryX=0.5;entryY=1;entryDx=0;entryDy=0;exitX=0.5;exitY=0;exitDx=0;exitDy=0;" parent="1" source="6Wh1PMRdPSsWSP1IhxvI-21" target="6Wh1PMRdPSsWSP1IhxvI-7" edge="1">
          <mxGeometry width="50" height="50" relative="1" as="geometry">
            <mxPoint x="315" y="160" as="sourcePoint" />
            <mxPoint x="280" y="150" as="targetPoint" />
          </mxGeometry>
        </mxCell>
        <mxCell id="6Wh1PMRdPSsWSP1IhxvI-21" value="muovere personagio" style="ellipse;whiteSpace=wrap;html=1;" parent="1" vertex="1">
          <mxGeometry x="265" y="155" width="100" height="40" as="geometry" />
        </mxCell>
        <mxCell id="6Wh1PMRdPSsWSP1IhxvI-22" value="" style="endArrow=none;html=1;rounded=0;entryX=0;entryY=0.5;entryDx=0;entryDy=0;" parent="1" source="6Wh1PMRdPSsWSP1IhxvI-18" target="6Wh1PMRdPSsWSP1IhxvI-21" edge="1">
          <mxGeometry width="50" height="50" relative="1" as="geometry">
            <mxPoint x="270" y="240" as="sourcePoint" />
            <mxPoint x="320" y="190" as="targetPoint" />
          </mxGeometry>
        </mxCell>
        <mxCell id="6Wh1PMRdPSsWSP1IhxvI-24" value="" style="endArrow=none;html=1;rounded=0;entryX=0.5;entryY=1;entryDx=0;entryDy=0;" parent="1" target="6Wh1PMRdPSsWSP1IhxvI-21" edge="1">
          <mxGeometry width="50" height="50" relative="1" as="geometry">
            <mxPoint x="315" y="240" as="sourcePoint" />
            <mxPoint x="300" y="190" as="targetPoint" />
          </mxGeometry>
        </mxCell>
        <mxCell id="6Wh1PMRdPSsWSP1IhxvI-25" value="Collisione" style="ellipse;whiteSpace=wrap;html=1;" parent="1" vertex="1">
          <mxGeometry x="270" y="210" width="90" height="30" as="geometry" />
        </mxCell>
        <mxCell id="6Wh1PMRdPSsWSP1IhxvI-26" value="Utente nel gioco" style="shape=umlActor;verticalLabelPosition=bottom;verticalAlign=top;html=1;outlineConnect=0;" parent="1" vertex="1">
          <mxGeometry x="160" y="247.5" width="30" height="60" as="geometry" />
        </mxCell>
        <mxCell id="6Wh1PMRdPSsWSP1IhxvI-27" value="" style="endArrow=none;html=1;rounded=0;exitX=0.5;exitY=0;exitDx=0;exitDy=0;exitPerimeter=0;" parent="1" source="6Wh1PMRdPSsWSP1IhxvI-26" target="6Wh1PMRdPSsWSP1IhxvI-18" edge="1">
          <mxGeometry width="50" height="50" relative="1" as="geometry">
            <mxPoint x="200" y="185" as="sourcePoint" />
            <mxPoint x="275" y="185" as="targetPoint" />
          </mxGeometry>
        </mxCell>
        <mxCell id="6Wh1PMRdPSsWSP1IhxvI-28" value="Inserimento nella leaderboard" style="ellipse;whiteSpace=wrap;html=1;" parent="1" vertex="1">
          <mxGeometry x="252.5" y="255" width="125" height="45" as="geometry" />
        </mxCell>
        <mxCell id="6Wh1PMRdPSsWSP1IhxvI-29" value="" style="endArrow=none;html=1;rounded=0;entryX=0.5;entryY=1;entryDx=0;entryDy=0;exitX=0.5;exitY=0;exitDx=0;exitDy=0;" parent="1" source="6Wh1PMRdPSsWSP1IhxvI-28" target="6Wh1PMRdPSsWSP1IhxvI-25" edge="1">
          <mxGeometry width="50" height="50" relative="1" as="geometry">
            <mxPoint x="325" y="250" as="sourcePoint" />
            <mxPoint x="325" y="205" as="targetPoint" />
          </mxGeometry>
        </mxCell>
        <mxCell id="6Wh1PMRdPSsWSP1IhxvI-30" value="" style="endArrow=none;html=1;rounded=0;exitX=0;exitY=0.5;exitDx=0;exitDy=0;" parent="1" source="6Wh1PMRdPSsWSP1IhxvI-28" target="6Wh1PMRdPSsWSP1IhxvI-26" edge="1">
          <mxGeometry width="50" height="50" relative="1" as="geometry">
            <mxPoint x="335" y="260" as="sourcePoint" />
            <mxPoint x="335" y="215" as="targetPoint" />
          </mxGeometry>
        </mxCell>
        <mxCell id="6Wh1PMRdPSsWSP1IhxvI-32" value="" style="endArrow=none;html=1;rounded=0;exitX=1;exitY=0.5;exitDx=0;exitDy=0;entryX=0.5;entryY=1;entryDx=0;entryDy=0;" parent="1" source="6Wh1PMRdPSsWSP1IhxvI-28" target="6Wh1PMRdPSsWSP1IhxvI-15" edge="1">
          <mxGeometry width="50" height="50" relative="1" as="geometry">
            <mxPoint x="300" y="250" as="sourcePoint" />
            <mxPoint x="350" y="200" as="targetPoint" />
          </mxGeometry>
        </mxCell>
      </root>
    </mxGraphModel>
  </diagram>
</mxfile>
